<?xml version="1.0" standalone="no"?>
<!DOCTYPE svg PUBLIC "-//W3C//DTD SVG 20010904//EN"
 "http://www.w3.org/TR/2001/REC-SVG-20010904/DTD/svg10.dtd">
<svg version="1.0" xmlns="http://www.w3.org/2000/svg"
 width="96.000000pt" height="96.000000pt" viewBox="0 0 96.000000 96.000000"
 preserveAspectRatio="xMidYMid meet">

<g transform="translate(0.000000,96.000000) scale(0.100000,-0.100000)"
fill="#000000" stroke="none">
<path d="M95 857 c-3 -6 -4 -181 -3 -387 l3 -375 234 -3 c208 -2 232 -1 221
13 -10 13 -47 15 -221 15 l-209 0 0 360 0 360 60 0 59 0 3 -97 3 -98 170 0
170 0 3 98 3 97 62 0 63 0 62 -63 62 -63 0 -222 c0 -191 2 -222 15 -222 13 0
15 32 15 231 l0 231 -69 69 -69 69 -316 0 c-245 0 -318 -3 -321 -13z m290
-102 l0 -80 -55 0 -55 0 -3 69 c-4 95 -2 98 60 94 l53 -3 0 -80z"/>
<path d="M200 375 l0 -185 132 0 132 0 -39 40 -39 40 67 0 67 0 0 120 0 120
120 0 120 0 0 25 0 25 -280 0 -280 0 0 -185z"/>
<path d="M560 360 l0 -120 -47 0 -48 0 98 -97 97 -98 97 98 98 97 -48 0 -47 0
0 120 0 120 -100 0 -100 0 0 -120z"/>
<path d="M853 189 c-7 -7 -13 -26 -13 -41 0 -24 -4 -28 -29 -28 -16 0 -34 -7
-41 -15 -11 -13 -6 -15 39 -15 58 0 64 6 59 69 -2 34 -5 40 -15 30z"/>
</g>
</svg>
