<svg width="266" height="165" viewBox="0 0 266 165" fill="none" xmlns="http://www.w3.org/2000/svg">
<rect width="266" height="165" fill="#41B06E"/>
<path d="M116.714 111.444H155.286M116.714 92.2778H155.286M142.431 22.0056C141.817 22 141.126 22 140.337 22H111.573C104.372 22 100.769 22 98.0187 23.3927C95.5995 24.6177 93.634 26.5711 92.4013 28.9754C91 31.7087 91 35.2895 91 42.4457V116.557C91 123.713 91 127.289 92.4013 130.023C93.634 132.427 95.5995 134.384 98.0187 135.609C100.766 137 104.365 137 111.552 137L160.448 137C167.635 137 171.229 137 173.976 135.609C176.395 134.384 178.367 132.427 179.6 130.023C181 127.292 181 123.721 181 116.578V62.4141C181 61.6304 180.999 60.9437 180.994 60.3333M142.431 22.0056C144.266 22.0222 145.422 22.0899 146.531 22.3544C147.843 22.6674 149.1 23.1836 150.251 23.8842C151.548 24.6742 152.662 25.781 154.884 27.9896L174.976 47.9579C177.2 50.1679 178.306 51.2698 179.101 52.5593C179.806 53.7025 180.327 54.9491 180.642 56.2529C180.908 57.3547 180.977 58.5096 180.994 60.3333M142.431 22.0056L142.429 39.8902C142.429 47.0464 142.429 50.6232 143.83 53.3565C145.063 55.7608 147.028 57.717 149.447 58.942C152.195 60.3333 155.794 60.3333 162.98 60.3333H180.994" stroke="#210404" stroke-width="7" stroke-linecap="round" stroke-linejoin="round"/>
</svg>
